<svg xmlns="http://www.w3.org/2000/svg" width="174" height="114"><g fill="none" fill-rule="evenodd"><path fill="#01C3A7" d="M54.987 84.241C37.2 67.671 36.244 39.799 52.883 21.984 60.82 13.459 71.913 8.384 83.579 8h1.53c1.434 0 2.869.096 4.207.192 5.45.478 10.806 2.107 15.683 4.597 5.546 2.873 10.519 6.896 14.44 11.781.286.287.477.67.764.958l.287.383c14.344 19.635 10.136 47.22-9.467 61.587-17.117 12.45-40.64 11.11-56.036-3.257"/><path fill="#21314D" d="M112.362 80.169l-.288.766v.288l.192.764c.096.193 0 .479-.096.671-.096.192-.383.286-.575.286h-.575c-.192 0-.383-.094-.575-.191l-1.917-1.914c-.096-.095-.287-.192-.383-.192h-1.15a.92.92 0 0 1-.863-.669.92.92 0 0 1 .671-.862h4.792c.288 0 .48.096.575.287.192.287.192.575.192.766zM99.71 76.34c0 .288-.288.479-.575.479h-1.534c-.191 0-.287-.096-.383-.19-.096-.098-.192-.289-.096-.385l.384-3.157v-.193l-.48-1.148c-.095-.192-.095-.287 0-.479.096-.191.192-.287.384-.287l.383-.095h.096l1.342-.575c.287-.095.575 0 .67.287l.48 1.054c.096.095.096.191.096.286l-.767 4.403zm-2.013-9.953c0-.288.096-.479.288-.671.287-.287.67-.383 1.054-.192.383.192.575.479.575.863v1.243c0 .096 0 .287-.096.384v.095c-.096.383-.479.574-.862.574-.384 0-.671-.19-.863-.479-.096-.095-.096-.287-.096-.478v-1.34zm-11.5 8.327l-.863.86c-.096.097-.288.192-.383.192-.096 0-.288-.095-.384-.192l-.287-.287c-.096-.095-.192-.286-.192-.383 0-.19.096-.287.192-.382l.862-.765c.192-.192.48-.192.767 0l.288.287c.095.095.191.191.191.382 0 0-.096.096-.191.288zM57.446 37.097l-2.205-.575c-.287-.095-.383-.286-.383-.574v-1.819c0-.19.096-.286.192-.382l2.491-2.489c.096-.096.096-.286.096-.383-.096-.096-.191-.191-.287-.191h-.863c-.287 0-.575-.287-.575-.574v-2.87c0-.288.288-.574.575-.574h1.725c.192 0 .384-.193.384-.383v-.671c0-.192.096-.286.191-.382l3.067-3.064c.096-.096.288-.19.48-.096l3.354.67c.287.097.479.287.383.479v2.393c0 .096-.096.287-.191.383l-1.055 1.052-.287.288c-.096.095-.096.191-.096.288v4.976c0 .096-.096.288-.192.384l-2.396 2.393c-.096.094-.191.19-.383.19h-2.013c-.096 0-.191 0-.287.096l-1.246 1.244c-.192.096-.288.192-.48.192zm45.811-12.922c-.48.479-1.15.479-1.533 0l-.48-.479c-.383-.381-.479-1.052-.095-1.531.383-.479 1.15-.479 1.629-.096l.479.479c.48.478.48 1.245 0 1.627.096 0 .096 0 0 0zm0-2.489c0-.286.096-.574.288-.764l.766-.767c.48-.383 1.15-.383 1.534 0 .096.096.096.191.191.288l.288.479c.096.19.096.382.096.478v1.148c0 .288-.096.574-.288.767l-.191.19c-.48.384-1.15.384-1.534 0l-.767-.766c-.191-.191-.287-.478-.287-.765v-.288h-.096zm18.21 50.538v-2.201c0-.383-.096-.765-.384-1.052l-.096-.097-1.246-1.244-1.725-1.722-9.104-9.093-.48-.479-.095-.096c-.096-.096-.192-.096-.288-.096-.096 0-.192 0-.288.096l-1.341 1.532c-.096.095-.096.192-.096.192v3.062c0 .096 0 .191.096.191l5.463 6.03c.287.288.575.479.958.67l2.492.957c.192.097.383.192.575.384l3.738 3.732c.191.191.191.575 0 .767l-.575.669c-.192.191-.575.191-.767 0l-1.438-1.436c-.096-.096-.191-.096-.287-.096-.096 0-.192 0-.288.096l-1.054 1.149c-.096.096-.096.383 0 .478l1.725 1.723c.096.097.192.288.192.383 0 .096-.096.287-.192.384l-2.492 2.487c-.096.096-.191.193-.383.193-.096 0-.192 0-.383-.097l-.863-.669c-.096-.097-.192-.191-.192-.384 0-.191 0-.286.192-.383l1.342-1.339c.096-.096.096-.287.096-.384l-2.013-3.444c-.288-.479-.67-.766-1.054-1.054l-3.834-1.914c-.192-.096-.383-.19-.575-.382l-3.163-2.777a4.263 4.263 0 0 1-.766-1.052l-1.438-3.542c-.096-.287-.287-.479-.575-.67l-2.875-1.723c-.48-.287-1.15-.287-1.63.192l-1.245 1.243-.192.193-2.204 2.106c-.288.287-.671.478-1.055.478h-4.504c-.67 0-1.246.573-1.246 1.34v1.053c0 .382-.192.766-.383 1.052l-6.422 6.414c-.287.286-.383.573-.383.957v2.01c0 .383-.192.765-.48 1.053L73.93 82.37c-.287.287-.67.479-1.054.479H69.52c-.095 0-.191 0-.287.094l-1.533 1.63a1.507 1.507 0 0 1-2.108 0l-2.108-2.107c-.096-.095-.192-.095-.288-.095h-2.108c-1.63 0-2.876-1.245-2.876-2.871V66.29c0-1.626 1.246-2.872 2.876-2.872h13.417c.575-.19.958-.669.958-1.244v-8.997c0-.383-.095-.67-.383-.957l-2.204-2.202c-.288-.286-.575-.382-.959-.382h-2.779a1.514 1.514 0 0 1-1.533-1.532v-.67c0-.862.67-1.53 1.533-1.53h5.559c.096 0 .287-.096.287-.193.096-.096 0-.286-.096-.382l-1.533-1.532c-.192-.192-.288-.575-.096-.765a.733.733 0 0 1 .48-.192h.67c.192 0 .288.096.384.192l1.341 1.34a.297.297 0 0 0 .192.096h2.78c.095 0 .191 0 .287-.096l2.588-2.585c.095-.096.095-.19.095-.287v-2.775c0-.288.288-.575.575-.575h1.438s.096 0 .096-.096l1.533-1.532 2.588-2.583c.288-.288.383-.574.383-.957v-1.053c0-.383.192-.767.384-1.054l1.15-1.148c.191-.191.383-.288.575-.383l2.875-.67 2.3-.478c.767 0 1.342-.574 1.342-1.245v-4.307c0-.383-.096-.67-.383-.958l-.671-.669c-.288-.288-.48-.67-.384-1.053v-2.49c0-.381.192-.764.384-1.052l.575-.574c.287-.287.67-.479 1.054-.479h.863c.575 0 1.15-.478 1.15-1.147 0-.767.575-1.34 1.246-1.34h.479c.766 0 1.341.573 1.341 1.34v3.54c0 .767-.287 1.531-.862 2.01l-2.3 2.297c-.096.096-.096.192-.096.288v2.105c0 .096 0 .096.096.192l1.437 1.435c.096.097.192.097.288.097h1.437a.53.53 0 0 1 .48.286c.096.193 0 .479-.096.574-.096.097-.096.288-.096.383.096.096.192.193.288.193h.383c.096 0 .192 0 .287-.097l1.438-1.436c.288-.286.67-.478 1.054-.478h.767c.383 0 .767.192 1.054.478l1.917 1.915.192.192c.096.095.191.095.287.095.096 0 .192 0 .288-.095l1.246-1.245c.095-.096.287-.19.383-.19h1.725c.192 0 .383-.193.383-.385v-1.34c0-.286.288-.574.576-.574h4.312c-1.725-2.105-3.642-4.116-5.654-5.838a1.55 1.55 0 0 1-1.438.574l-1.246-.19c-.191 0-.287.095-.383.19l-.671 1.627c-.192.479-.575.861-1.054.957h-.288c-.383 0-.766-.191-1.054-.478l-2.588-6.318v-2.2a46.694 46.694 0 0 0-7.188-2.872l-1.533 1.532c-1.15 1.147-2.971 1.147-4.025 0l-2.3-2.298c-.288-.288-.48-.574-.576-.958-1.437-.094-2.875-.19-4.312-.19h-1.534c-4.025.096-8.05.86-11.884 2.105 0 .096-.096.096-.096.191l-2.108 2.107c-.096.095-.096.286-.096.383.096.096.192.19.287.19h3.642c.288 0 .575.288.575.575v2.775c0 .096-.095.288-.191.384l-2.3 2.297c-.096.096-.096.286-.096.382.096.097.191.193.287.193h.767c.383 0 .767.19 1.054.478l.767.765c.287.287.48.67.48 1.054v2.01c0 .765.574 1.34 1.245 1.34h.575c.383 0 .767.19 1.054.478l1.055 1.053c.287.286.479.67.479 1.052v3.734c0 .19.191.383.383.383h1.917c.096 0 .287.096.383.19l.767.767c.096.096.192.19.192.382v1.436c0 .192-.096.287-.192.383L81.118 37c-.096.096-.096.383 0 .478.096.096.192.096.288.096h.191c.288 0 .575.193.575.479v.861c0 .288-.287.575-.575.575h-9.775c-.192 0-.384.192-.384.382v1.15c0 .286-.287.574-.575.574h-2.012c-.096 0-.192 0-.192.095l-.767.767c-.096.095-.287.19-.383.19-.096 0-.288-.095-.384-.19l-.575-.576c-.191-.191-.191-.574 0-.764l2.684-2.681c.096-.096.287-.19.383-.19h2.109c.191 0 .383-.193.383-.289v-1.243a.411.411 0 0 0-.383-.383H67.7c-.287 0-.575-.288-.575-.574v-.576c0-.191.096-.286.192-.382l2.204-2.202c.096-.095.096-.19.096-.19v-.193c0-.19-.191-.383-.383-.383h-.575c-.288 0-.575-.191-.575-.574v-.861c0-.287.287-.575.575-.575h2.683c.192 0 .384-.19.384-.383v-2.01c-.096-.19-1.63-1.722-2.492-2.679-.096-.096-.192-.096-.288-.096h-1.725c-.287 0-.575-.287-.575-.575v-.764c0-.193.096-.289.192-.383l.862-.863c.096-.095.096-.19.096-.287 0-.096 0-.191-.096-.286l-3.066-3.064c-.288-.286-.48-.67-.48-1.053v-4.114C42.686 24.845 34.732 51.55 46.328 72.894c11.597 21.344 38.336 29.385 59.708 17.802 6.997-3.732 12.843-9.38 16.964-16.175l-1.054-1.053c-.288-.288-.48-.766-.48-1.245z"/><path fill="#FFF" d="M69.887 112.084c4.302-4.023 8.509-5.748 13.767-5.748h.191c5.258 0 9.465 1.725 13.767 5.748H69.887zM54.78 83.92C37 67.346 36.043 39.47 52.678 21.651c7.935-8.527 19.025-13.604 30.689-13.987h1.53c1.434 0 2.868.096 4.206.192 5.45.479 10.803 2.107 15.68 4.598 5.544 2.874 10.516 6.897 14.436 11.783.286.287.478.67.764.958l.287.383c14.34 19.639 10.134 47.229-9.465 61.599-17.113 12.453-40.631 11.112-56.024-3.258zM84.13 3.162c.096 0 .192.096.383.096 26.77 0 48.472 21.746 48.472 48.57s-21.703 48.57-48.472 48.57c-.095 0-.191 0-.382.095v-2.778h1.53c25.335-.383 45.507-21.363 45.125-46.75-.383-25.386-21.32-45.6-46.655-45.216V3.161zm88.913 108.923h-72.66c-5.067-5.269-10.038-7.568-16.252-7.664v-2.299c.095 0 .191.096.382.096 27.821 0 50.384-22.609 50.384-50.39 0-27.782-22.563-50.486-50.288-50.486-.096 0-.191 0-.383.096v-.48c0-.575-.382-.958-.956-.958-.573 0-.956.383-.956.958v4.79C56.98 6.898 37.381 28.452 38.528 53.743 39.58 77.5 58.605 96.469 82.315 97.618v6.898c-5.736.383-10.325 2.681-15.105 7.568H.956c-.574 0-.956.382-.956.958 0 .575.382.958.956.958h172.088c.573 0 .956-.383.956-.958 0-.576-.478-1.055-.956-.958zM9.938 59h13.124c.563 0 .938-.4.938-1 0-.601-.375-1-.938-1H9.938C9.376 57 9 57.399 9 58c0 .6.375 1 .938 1m6-7h13.124c.563 0 .938-.4.938-1s-.375-1-.938-1H15.938c-.562 0-.937.4-.937 1s.375 1 .938 1"/></g></svg>