<svg xmlns="http://www.w3.org/2000/svg" width="60" height="18"><path d="M49.194 11.552a4.443 4.443 0 0 1-.669.344 2.396 2.396 0 0 1-.888.193c-.423 0-.749-.06-.969-.188-.22-.121-.336-.333-.332-.635 0-.349.08-.619.247-.832.168-.204.417-.369.727-.491.308-.104.686-.19 1.123-.252a30.289 30.289 0 0 1 1.254-.138c.098-.001.163-.055.12.207a63.825 63.825 0 0 1-.343 1.438c-.029.124-.194.305-.27.353zm3.014-6.397c-.647-.361-1.658-.543-3.042-.543-.684 0-1.373.055-2.063.162-.507.078-.559.09-.874.159-.647.141-.748.789-.748.789l-.208.855c-.118.547.194.524.333.482.283-.085.436-.17 1.013-.301.551-.125 1.134-.219 1.599-.215.682 0 1.2.075 1.545.219.345.15.516.407.516.773.001.087.003.169-.028.241-.028.067-.083.132-.246.154-.973.058-1.671.147-2.512.269-.83.117-1.556.317-2.163.594-.647.287-1.131.671-1.465 1.158-.325.489-.488 1.081-.489 1.778 0 .659.237 1.197.695 1.614.464.412 1.067.616 1.797.616.456-.003.813-.036 1.069-.1.253-.064.529-.155.821-.281.218-.091.453-.223.701-.388l.642-.428.008.014-.062.274-.004.007.002.005c-.071.33.127.605.455.637l.004.006h.029l.001.001 1.311-.001h.243l.024-.009c.334-.041.654-.313.729-.64l1.244-5.369c.029-.126.051-.272.065-.44l.028-.41c.003-.76-.324-1.322-.969-1.683" fill="#007ac5"/><path d="M30.809 4.73c-.365 0-.844.295-1.07.652 0 0-2.441 4.184-2.68 4.603-.13.225-.262.082-.284-.002-.018-.102-.756-4.573-.756-4.573-.083-.36-.459-.669-.929-.668l-1.522.002c-.367 0-.596.294-.514.649 0 0 1.163 6.594 1.39 8.145.113.858-.012 1.01-.012 1.01l-1.508 2.63c-.221.357-.1.649.265.649l1.764-.001c.365 0 .849-.291 1.066-.648l6.785-11.476s.649-.98.05-.972c-.408.006-2.044 0-2.044 0M13.068 3.657a2.553 2.553 0 0 0-.934-1.002c-.42-.259-.909-.438-1.478-.546-.573-.103-1.243-.153-2.01-.16l-3.556.003a.888.888 0 0 0-.817.649L1.876 13.024c-.083.357.148.651.516.651h1.703a.872.872 0 0 0 .816-.651l.587-2.529c.078-.354.442-.646.812-.646h.487c2.083-.002 3.699-.428 4.86-1.281 1.159-.851 1.739-1.98 1.737-3.375.003-.613-.103-1.126-.325-1.536M9.263 6.893c-.514.376-1.225.564-2.149.564h-.418c-.368 0-.6-.292-.519-.65l.513-2.209a.867.867 0 0 1 .813-.648l.557-.003c.651 0 1.146.111 1.48.333.329.216.496.556.491 1.014.01.69-.252 1.223-.768 1.6" fill="#00437f"/><path d="M43.991 3.695a2.595 2.595 0 0 0-.938-1.004c-.415-.258-.909-.438-1.481-.544a11.92 11.92 0 0 0-2.003-.158l-3.563.002a.887.887 0 0 0-.812.649l-2.396 10.426a.503.503 0 0 0 .511.647l1.71-.003c.363.003.732-.29.818-.644l.578-2.53c.081-.355.45-.652.818-.646h.486c2.086 0 3.703-.428 4.861-1.281 1.155-.857 1.737-1.982 1.737-3.38-.004-.611-.108-1.125-.325-1.533M40.432 7.1c-.51.371-1.227.557-2.148.557h-.424c-.367.004-.603-.292-.516-.647l.511-2.213c.076-.35.448-.648.81-.645l.56-.003c.654.003 1.142.112 1.48.33.332.22.493.561.496 1.016.001.693-.255 1.226-.768 1.606" fill="#007ac5"/><path d="M18.264 11.544a4.48 4.48 0 0 1-.668.344 2.42 2.42 0 0 1-.889.193c-.422 0-.748-.06-.969-.188-.22-.122-.336-.333-.332-.635 0-.348.081-.619.248-.831.168-.204.417-.369.726-.492.308-.105.688-.19 1.123-.251a34.844 34.844 0 0 1 1.255-.139c.097 0 .163-.055.119.207a62.532 62.532 0 0 1-.343 1.438c-.031.125-.196.305-.27.353zm3.014-6.397c-.647-.361-1.658-.543-3.042-.543-.685 0-1.373.054-2.063.162-.507.077-.558.09-.874.159-.648.141-.748.789-.748.789l-.208.856c-.118.547.194.524.333.482.282-.085.436-.17 1.013-.301.551-.125 1.134-.218 1.598-.215.682 0 1.2.074 1.545.218.345.15.515.407.515.773.002.087.004.169-.027.241-.029.068-.084.132-.247.154-.972.059-1.67.147-2.512.27-.83.117-1.555.317-2.163.594-.647.287-1.13.672-1.464 1.158-.326.489-.489 1.081-.489 1.778 0 .659.237 1.197.695 1.614.464.412 1.067.616 1.796.616.456-.003.813-.037 1.069-.1.253-.064.529-.155.82-.281.219-.091.453-.223.702-.388l.643-.428.007.013-.062.274-.004.008.003.004c-.071.331.127.605.454.637l.004.006h.029l.001.002 1.311-.002h.243l.024-.009c.335-.042.654-.314.73-.639l1.244-5.369c.028-.126.051-.272.064-.439l.03-.41c.003-.76-.324-1.322-.969-1.683" fill="#00437f"/><path d="M58.08 2.075h-1.527a.878.878 0 0 0-.802.607l-.014.041-.099.452-2.093 9.489-.09.391.004.005c-.073.332.127.606.454.637l.004.006h1.582a.881.881 0 0 0 .8-.6l.016-.048 2.284-10.332-.003-.001c.078-.353-.15-.647-.515-.647" fill="#007ac5"/></svg>